<mxfile host="app.diagrams.net" modified="2023-06-24T11:55:32.250Z" agent="Mozilla/5.0 (Macintosh; Intel Mac OS X 10_15_7) AppleWebKit/537.36 (KHTML, like Gecko) Chrome/114.0.0.0 Safari/537.36" version="21.4.0" etag="eXaPSD5f8mSKkh9XYfOL" type="github">
  <diagram name="第 1 页" id="-3h45lj8QEWwRLPOuizs">
    <mxGraphModel>
      <root>
        <mxCell id="0" />
        <mxCell id="1" parent="0" />
      </root>
    </mxGraphModel>
  </diagram>
</mxfile>
